<?xml version="1.0" encoding="UTF-8" standalone="no"?>
<!DOCTYPE svg PUBLIC "-//W3C//DTD SVG 1.1//EN"
 "http://www.w3.org/Graphics/SVG/1.1/DTD/svg11.dtd">
<!-- Generated by graphviz version 13.1.2 (20250808.2320)
 -->
<!-- Title: G Pages: 1 -->
<svg width="2841pt" height="293pt"
 viewBox="0.00 0.00 2841.00 293.00" xmlns="http://www.w3.org/2000/svg" xmlns:xlink="http://www.w3.org/1999/xlink">
<g id="graph0" class="graph" transform="scale(1 1) rotate(0) translate(4 289.25)">
<title>G</title>
<polygon fill="white" stroke="none" points="-4,4 -4,-289.25 2837.12,-289.25 2837.12,4 -4,4"/>
<!-- aircrafts_data -->
<g id="node1" class="node">
<title>aircrafts_data</title>
<polygon fill="lightblue" stroke="black" points="1432.75,-0.5 1432.75,-36.5 1928,-36.5 1928,-0.5 1432.75,-0.5"/>
<text xml:space="preserve" text-anchor="middle" x="1477.5" y="-13.45" font-family="Times,serif" font-size="14.00">aircrafts_data</text>
<polyline fill="none" stroke="black" points="1522.25,-0.5 1522.25,-36.5"/>
<text xml:space="preserve" text-anchor="middle" x="1606.38" y="-13.45" font-family="Times,serif" font-size="14.00">aircraft_code * NOT NULL</text>
<polyline fill="none" stroke="black" points="1690.5,-0.5 1690.5,-36.5"/>
<text xml:space="preserve" text-anchor="middle" x="1751" y="-13.45" font-family="Times,serif" font-size="14.00">model NOT NULL</text>
<polyline fill="none" stroke="black" points="1811.5,-0.5 1811.5,-36.5"/>
<text xml:space="preserve" text-anchor="middle" x="1869.75" y="-13.45" font-family="Times,serif" font-size="14.00">range NOT NULL</text>
</g>
<!-- airports_data -->
<g id="node2" class="node">
<title>airports_data</title>
<polygon fill="lightblue" stroke="black" points="361.75,-0.5 361.75,-36.5 1165,-36.5 1165,-0.5 361.75,-0.5"/>
<text xml:space="preserve" text-anchor="middle" x="405" y="-13.45" font-family="Times,serif" font-size="14.00">airports_data</text>
<polyline fill="none" stroke="black" points="448.25,-0.5 448.25,-36.5"/>
<text xml:space="preserve" text-anchor="middle" x="530.88" y="-13.45" font-family="Times,serif" font-size="14.00">airport_code * NOT NULL</text>
<polyline fill="none" stroke="black" points="613.5,-0.5 613.5,-36.5"/>
<text xml:space="preserve" text-anchor="middle" x="693.12" y="-13.45" font-family="Times,serif" font-size="14.00">airport_name NOT NULL</text>
<polyline fill="none" stroke="black" points="772.75,-0.5 772.75,-36.5"/>
<text xml:space="preserve" text-anchor="middle" x="826.12" y="-13.45" font-family="Times,serif" font-size="14.00">city NOT NULL</text>
<polyline fill="none" stroke="black" points="879.5,-0.5 879.5,-36.5"/>
<text xml:space="preserve" text-anchor="middle" x="953.88" y="-13.45" font-family="Times,serif" font-size="14.00">coordinates NOT NULL</text>
<polyline fill="none" stroke="black" points="1028.25,-0.5 1028.25,-36.5"/>
<text xml:space="preserve" text-anchor="middle" x="1096.62" y="-13.45" font-family="Times,serif" font-size="14.00">timezone NOT NULL</text>
</g>
<!-- boarding_passes -->
<g id="node3" class="node">
<title>boarding_passes</title>
<polygon fill="lightblue" stroke="black" points="1271.12,-248.75 1271.12,-284.75 1949.62,-284.75 1949.62,-248.75 1271.12,-248.75"/>
<text xml:space="preserve" text-anchor="middle" x="1323.75" y="-261.7" font-family="Times,serif" font-size="14.00">boarding_passes</text>
<polyline fill="none" stroke="black" points="1376.38,-248.75 1376.38,-284.75"/>
<text xml:space="preserve" text-anchor="middle" x="1450" y="-261.7" font-family="Times,serif" font-size="14.00">ticket_no * NOT NULL</text>
<polyline fill="none" stroke="black" points="1523.62,-248.75 1523.62,-284.75"/>
<text xml:space="preserve" text-anchor="middle" x="1595.38" y="-261.7" font-family="Times,serif" font-size="14.00">flight_id * NOT NULL</text>
<polyline fill="none" stroke="black" points="1667.12,-248.75 1667.12,-284.75"/>
<text xml:space="preserve" text-anchor="middle" x="1744.5" y="-261.7" font-family="Times,serif" font-size="14.00">boarding_no NOT NULL</text>
<polyline fill="none" stroke="black" points="1821.88,-248.75 1821.88,-284.75"/>
<text xml:space="preserve" text-anchor="middle" x="1885.75" y="-261.7" font-family="Times,serif" font-size="14.00">seat_no NOT NULL</text>
</g>
<!-- ticket_flights -->
<g id="node7" class="node">
<title>ticket_flights</title>
<polygon fill="lightblue" stroke="black" points="1272.25,-166 1272.25,-202 1948.5,-202 1948.5,-166 1272.25,-166"/>
<text xml:space="preserve" text-anchor="middle" x="1315.88" y="-178.95" font-family="Times,serif" font-size="14.00">ticket_flights</text>
<polyline fill="none" stroke="black" points="1359.5,-166 1359.5,-202"/>
<text xml:space="preserve" text-anchor="middle" x="1433.12" y="-178.95" font-family="Times,serif" font-size="14.00">ticket_no * NOT NULL</text>
<polyline fill="none" stroke="black" points="1506.75,-166 1506.75,-202"/>
<text xml:space="preserve" text-anchor="middle" x="1578.5" y="-178.95" font-family="Times,serif" font-size="14.00">flight_id * NOT NULL</text>
<polyline fill="none" stroke="black" points="1650.25,-166 1650.25,-202"/>
<text xml:space="preserve" text-anchor="middle" x="1735.5" y="-178.95" font-family="Times,serif" font-size="14.00">fare_conditions NOT NULL</text>
<polyline fill="none" stroke="black" points="1820.75,-166 1820.75,-202"/>
<text xml:space="preserve" text-anchor="middle" x="1884.62" y="-178.95" font-family="Times,serif" font-size="14.00">amount NOT NULL</text>
</g>
<!-- boarding_passes&#45;&gt;ticket_flights -->
<g id="edge1" class="edge">
<title>boarding_passes&#45;&gt;ticket_flights</title>
<path fill="none" stroke="black" d="M1510.27,-248.27C1493.59,-243.38 1479.89,-237.4 1474.38,-230.25 1468.09,-222.11 1467.38,-215.42 1470.61,-209.92"/>
<polygon fill="black" stroke="black" points="1472.76,-212.7 1477.59,-203.27 1467.94,-207.63 1472.76,-212.7"/>
<text xml:space="preserve" text-anchor="middle" x="1508.88" y="-222.65" font-family="Times,serif" font-size="8.00">flight_id → ticket_no</text>
</g>
<!-- boarding_passes&#45;&gt;ticket_flights -->
<g id="edge2" class="edge">
<title>boarding_passes&#45;&gt;ticket_flights</title>
<path fill="none" stroke="black" d="M1581.54,-248.5C1575.52,-243.43 1569.99,-237.31 1566.62,-230.25 1563.17,-222.99 1565.31,-216.17 1570.12,-210.13"/>
<polygon fill="black" stroke="black" points="1572.24,-212.95 1576.97,-203.47 1567.36,-207.93 1572.24,-212.95"/>
<text xml:space="preserve" text-anchor="middle" x="1600" y="-222.65" font-family="Times,serif" font-size="8.00">flight_id → flight_id</text>
</g>
<!-- boarding_passes&#45;&gt;ticket_flights -->
<g id="edge3" class="edge">
<title>boarding_passes&#45;&gt;ticket_flights</title>
<path fill="none" stroke="black" d="M1624.48,-248.32C1628.1,-242.86 1631.5,-236.59 1633.38,-230.25 1635.16,-224.23 1634.16,-218.05 1631.8,-212.28"/>
<polygon fill="black" stroke="black" points="1635,-210.83 1627.11,-203.76 1628.87,-214.2 1635,-210.83"/>
<text xml:space="preserve" text-anchor="middle" x="1669.91" y="-222.65" font-family="Times,serif" font-size="8.00">ticket_no → ticket_no</text>
</g>
<!-- boarding_passes&#45;&gt;ticket_flights -->
<g id="edge4" class="edge">
<title>boarding_passes&#45;&gt;ticket_flights</title>
<path fill="none" stroke="black" d="M1689.31,-248.29C1697.14,-243.62 1704.12,-237.72 1709.38,-230.25 1715.42,-221.67 1714.18,-214.68 1708.53,-208.99"/>
<polygon fill="black" stroke="black" points="1710.67,-206.22 1700.47,-203.34 1706.65,-211.95 1710.67,-206.22"/>
<text xml:space="preserve" text-anchor="middle" x="1747.73" y="-222.65" font-family="Times,serif" font-size="8.00">ticket_no → flight_id</text>
</g>
<!-- bookings -->
<g id="node4" class="node">
<title>bookings</title>
<polygon fill="lightblue" stroke="black" points="2201.12,-0.5 2201.12,-36.5 2713.62,-36.5 2713.62,-0.5 2201.12,-0.5"/>
<text xml:space="preserve" text-anchor="middle" x="2233.88" y="-13.45" font-family="Times,serif" font-size="14.00">bookings</text>
<polyline fill="none" stroke="black" points="2266.62,-0.5 2266.62,-36.5"/>
<text xml:space="preserve" text-anchor="middle" x="2339.5" y="-13.45" font-family="Times,serif" font-size="14.00">book_ref * NOT NULL</text>
<polyline fill="none" stroke="black" points="2412.38,-0.5 2412.38,-36.5"/>
<text xml:space="preserve" text-anchor="middle" x="2483.75" y="-13.45" font-family="Times,serif" font-size="14.00">book_date NOT NULL</text>
<polyline fill="none" stroke="black" points="2555.12,-0.5 2555.12,-36.5"/>
<text xml:space="preserve" text-anchor="middle" x="2634.38" y="-13.45" font-family="Times,serif" font-size="14.00">total_amount NOT NULL</text>
</g>
<!-- flights -->
<g id="node5" class="node">
<title>flights</title>
<polygon fill="lightblue" stroke="black" points="0,-83.25 0,-119.25 1526.75,-119.25 1526.75,-83.25 0,-83.25"/>
<text xml:space="preserve" text-anchor="middle" x="25.25" y="-96.2" font-family="Times,serif" font-size="14.00">flights</text>
<polyline fill="none" stroke="black" points="50.5,-83.25 50.5,-119.25"/>
<text xml:space="preserve" text-anchor="middle" x="122.25" y="-96.2" font-family="Times,serif" font-size="14.00">flight_id * NOT NULL</text>
<polyline fill="none" stroke="black" points="194,-83.25 194,-119.25"/>
<text xml:space="preserve" text-anchor="middle" x="262" y="-96.2" font-family="Times,serif" font-size="14.00">flight_no NOT NULL</text>
<polyline fill="none" stroke="black" points="330,-83.25 330,-119.25"/>
<text xml:space="preserve" text-anchor="middle" x="429.12" y="-96.2" font-family="Times,serif" font-size="14.00">scheduled_departure NOT NULL</text>
<polyline fill="none" stroke="black" points="528.25,-83.25 528.25,-119.25"/>
<text xml:space="preserve" text-anchor="middle" x="619.5" y="-96.2" font-family="Times,serif" font-size="14.00">scheduled_arrival NOT NULL</text>
<polyline fill="none" stroke="black" points="710.75,-83.25 710.75,-119.25"/>
<text xml:space="preserve" text-anchor="middle" x="800.88" y="-96.2" font-family="Times,serif" font-size="14.00">departure_airport NOT NULL</text>
<polyline fill="none" stroke="black" points="891,-83.25 891,-119.25"/>
<text xml:space="preserve" text-anchor="middle" x="973.25" y="-96.2" font-family="Times,serif" font-size="14.00">arrival_airport NOT NULL</text>
<polyline fill="none" stroke="black" points="1055.5,-83.25 1055.5,-119.25"/>
<text xml:space="preserve" text-anchor="middle" x="1114.12" y="-96.2" font-family="Times,serif" font-size="14.00">status NOT NULL</text>
<polyline fill="none" stroke="black" points="1172.75,-83.25 1172.75,-119.25"/>
<text xml:space="preserve" text-anchor="middle" x="1251.62" y="-96.2" font-family="Times,serif" font-size="14.00">aircraft_code NOT NULL</text>
<polyline fill="none" stroke="black" points="1330.5,-83.25 1330.5,-119.25"/>
<text xml:space="preserve" text-anchor="middle" x="1383.5" y="-96.2" font-family="Times,serif" font-size="14.00">actual_departure</text>
<polyline fill="none" stroke="black" points="1436.5,-83.25 1436.5,-119.25"/>
<text xml:space="preserve" text-anchor="middle" x="1481.62" y="-96.2" font-family="Times,serif" font-size="14.00">actual_arrival</text>
</g>
<!-- flights&#45;&gt;aircrafts_data -->
<g id="edge5" class="edge">
<title>flights&#45;&gt;aircrafts_data</title>
<path fill="none" stroke="black" d="M962.07,-82.75C1112.11,-69.54 1317.55,-51.45 1470.3,-38"/>
<polygon fill="black" stroke="black" points="1470.5,-41.49 1480.16,-37.13 1469.89,-34.52 1470.5,-41.49"/>
<text xml:space="preserve" text-anchor="middle" x="1326.65" y="-57.15" font-family="Times,serif" font-size="8.00">aircraft_code → aircraft_code</text>
</g>
<!-- flights&#45;&gt;airports_data -->
<g id="edge6" class="edge">
<title>flights&#45;&gt;airports_data</title>
<path fill="none" stroke="black" d="M720.38,-82.77C713.37,-77.98 707.05,-72.04 702.88,-64.75 698.34,-56.83 700.74,-49.87 706.65,-43.93"/>
<polygon fill="black" stroke="black" points="708.73,-46.75 714.54,-37.89 704.47,-41.19 708.73,-46.75"/>
<text xml:space="preserve" text-anchor="middle" x="753.12" y="-57.15" font-family="Times,serif" font-size="8.00">arrival_airport → airport_code</text>
</g>
<!-- flights&#45;&gt;airports_data -->
<g id="edge7" class="edge">
<title>flights&#45;&gt;airports_data</title>
<path fill="none" stroke="black" d="M789.37,-82.97C795.03,-77.83 800.25,-71.69 803.38,-64.75 806.55,-57.68 804.56,-50.92 800.12,-44.89"/>
<polygon fill="black" stroke="black" points="802.67,-42.49 793.23,-37.69 797.62,-47.33 802.67,-42.49"/>
<text xml:space="preserve" text-anchor="middle" x="859.68" y="-57.15" font-family="Times,serif" font-size="8.00">departure_airport → airport_code</text>
</g>
<!-- seats -->
<g id="node6" class="node">
<title>seats</title>
<polygon fill="lightblue" stroke="black" points="1544.75,-83.25 1544.75,-119.25 2064,-119.25 2064,-83.25 1544.75,-83.25"/>
<text xml:space="preserve" text-anchor="middle" x="1565.88" y="-96.2" font-family="Times,serif" font-size="14.00">seats</text>
<polyline fill="none" stroke="black" points="1587,-83.25 1587,-119.25"/>
<text xml:space="preserve" text-anchor="middle" x="1671.12" y="-96.2" font-family="Times,serif" font-size="14.00">aircraft_code * NOT NULL</text>
<polyline fill="none" stroke="black" points="1755.25,-83.25 1755.25,-119.25"/>
<text xml:space="preserve" text-anchor="middle" x="1824.38" y="-96.2" font-family="Times,serif" font-size="14.00">seat_no * NOT NULL</text>
<polyline fill="none" stroke="black" points="1893.5,-83.25 1893.5,-119.25"/>
<text xml:space="preserve" text-anchor="middle" x="1978.75" y="-96.2" font-family="Times,serif" font-size="14.00">fare_conditions NOT NULL</text>
</g>
<!-- seats&#45;&gt;aircrafts_data -->
<g id="edge8" class="edge">
<title>seats&#45;&gt;aircrafts_data</title>
<path fill="none" stroke="black" d="M1777.77,-82.93C1759.88,-71.27 1736.06,-55.76 1716.46,-43"/>
<polygon fill="black" stroke="black" points="1718.49,-40.14 1708.2,-37.62 1714.67,-46.01 1718.49,-40.14"/>
<text xml:space="preserve" text-anchor="middle" x="1799.67" y="-57.15" font-family="Times,serif" font-size="8.00">aircraft_code → aircraft_code</text>
</g>
<!-- ticket_flights&#45;&gt;flights -->
<g id="edge9" class="edge">
<title>ticket_flights&#45;&gt;flights</title>
<path fill="none" stroke="black" d="M1426.85,-165.5C1288.54,-152.32 1099.26,-134.27 958.26,-120.83"/>
<polygon fill="black" stroke="black" points="958.71,-117.36 948.42,-119.89 958.04,-124.33 958.71,-117.36"/>
<text xml:space="preserve" text-anchor="middle" x="1270.96" y="-139.9" font-family="Times,serif" font-size="8.00">flight_id → flight_id</text>
</g>
<!-- tickets -->
<g id="node8" class="node">
<title>tickets</title>
<polygon fill="lightblue" stroke="black" points="2081.62,-83.25 2081.62,-119.25 2833.12,-119.25 2833.12,-83.25 2081.62,-83.25"/>
<text xml:space="preserve" text-anchor="middle" x="2107.25" y="-96.2" font-family="Times,serif" font-size="14.00">tickets</text>
<polyline fill="none" stroke="black" points="2132.88,-83.25 2132.88,-119.25"/>
<text xml:space="preserve" text-anchor="middle" x="2206.5" y="-96.2" font-family="Times,serif" font-size="14.00">ticket_no * NOT NULL</text>
<polyline fill="none" stroke="black" points="2280.12,-83.25 2280.12,-119.25"/>
<text xml:space="preserve" text-anchor="middle" x="2347.75" y="-96.2" font-family="Times,serif" font-size="14.00">book_ref NOT NULL</text>
<polyline fill="none" stroke="black" points="2415.38,-83.25 2415.38,-119.25"/>
<text xml:space="preserve" text-anchor="middle" x="2493.88" y="-96.2" font-family="Times,serif" font-size="14.00">passenger_id NOT NULL</text>
<polyline fill="none" stroke="black" points="2572.38,-83.25 2572.38,-119.25"/>
<text xml:space="preserve" text-anchor="middle" x="2660.62" y="-96.2" font-family="Times,serif" font-size="14.00">passenger_name NOT NULL</text>
<polyline fill="none" stroke="black" points="2748.88,-83.25 2748.88,-119.25"/>
<text xml:space="preserve" text-anchor="middle" x="2791" y="-96.2" font-family="Times,serif" font-size="14.00">contact_data</text>
</g>
<!-- ticket_flights&#45;&gt;tickets -->
<g id="edge10" class="edge">
<title>ticket_flights&#45;&gt;tickets</title>
<path fill="none" stroke="black" d="M1793.9,-165.5C1932.21,-152.32 2121.49,-134.27 2262.49,-120.83"/>
<polygon fill="black" stroke="black" points="2262.71,-124.33 2272.33,-119.89 2262.04,-117.36 2262.71,-124.33"/>
<text xml:space="preserve" text-anchor="middle" x="2120.21" y="-139.9" font-family="Times,serif" font-size="8.00">ticket_no → ticket_no</text>
</g>
<!-- tickets&#45;&gt;bookings -->
<g id="edge11" class="edge">
<title>tickets&#45;&gt;bookings</title>
<path fill="none" stroke="black" d="M2457.38,-83.13C2457.38,-73.02 2457.38,-59.98 2457.38,-48.33"/>
<polygon fill="black" stroke="black" points="2460.88,-48.39 2457.38,-38.39 2453.88,-48.39 2460.88,-48.39"/>
<text xml:space="preserve" text-anchor="middle" x="2492.25" y="-57.15" font-family="Times,serif" font-size="8.00">book_ref → book_ref</text>
</g>
</g>
</svg>
