<?xml version="1.0" encoding="us-ascii" standalone="no"?><svg xmlns="http://www.w3.org/2000/svg" xmlns:xlink="http://www.w3.org/1999/xlink" contentStyleType="text/css" height="247px" preserveAspectRatio="none" style="width:1004px;height:247px;background:#FFFFFF;" version="1.1" viewBox="0 0 1004 247" width="1004px" zoomAndPan="magnify"><defs/><g><!--class boarding_passes--><g id="elem_boarding_passes"><rect codeLine="11" fill="#FFFFFF" height="42.2969" id="boarding_passes" rx="2.5" ry="2.5" style="stroke:#000000;stroke-width:0.5;" width="124" x="7" y="122"/><text fill="#000000" font-family="sans-serif" font-size="14" lengthAdjust="spacing" textLength="118" x="10" y="139.9951">boarding_passes</text><line style="stroke:#000000;stroke-width:0.5;" x1="8" x2="130" y1="148.2969" y2="148.2969"/><line style="stroke:#000000;stroke-width:0.5;" x1="8" x2="130" y1="156.2969" y2="156.2969"/></g><!--class ticket_flights--><g id="elem_ticket_flights"><rect codeLine="12" fill="#FFFFFF" height="42.2969" id="ticket_flights" rx="2.5" ry="2.5" style="stroke:#000000;stroke-width:0.5;" width="92" x="310" y="122"/><text fill="#000000" font-family="sans-serif" font-size="14" lengthAdjust="spacing" textLength="86" x="313" y="139.9951">ticket_flights</text><line style="stroke:#000000;stroke-width:0.5;" x1="311" x2="401" y1="148.2969" y2="148.2969"/><line style="stroke:#000000;stroke-width:0.5;" x1="311" x2="401" y1="156.2969" y2="156.2969"/></g><!--class flights--><g id="elem_flights"><rect codeLine="13" fill="#FFFFFF" height="42.2969" id="flights" rx="2.5" ry="2.5" style="stroke:#000000;stroke-width:0.5;" width="47" x="601.5" y="44"/><text fill="#000000" font-family="sans-serif" font-size="14" lengthAdjust="spacing" textLength="41" x="604.5" y="61.9951">flights</text><line style="stroke:#000000;stroke-width:0.5;" x1="602.5" x2="647.5" y1="70.2969" y2="70.2969"/><line style="stroke:#000000;stroke-width:0.5;" x1="602.5" x2="647.5" y1="78.2969" y2="78.2969"/></g><!--class aircrafts_data--><g id="elem_aircrafts_data"><rect codeLine="14" fill="#FFFFFF" height="42.2969" id="aircrafts_data" rx="2.5" ry="2.5" style="stroke:#000000;stroke-width:0.5;" width="97" x="900" y="102"/><text fill="#000000" font-family="sans-serif" font-size="14" lengthAdjust="spacing" textLength="91" x="903" y="119.9951">aircrafts_data</text><line style="stroke:#000000;stroke-width:0.5;" x1="901" x2="996" y1="128.2969" y2="128.2969"/><line style="stroke:#000000;stroke-width:0.5;" x1="901" x2="996" y1="136.2969" y2="136.2969"/></g><!--class airports_data--><g id="elem_airports_data"><rect codeLine="15" fill="#FFFFFF" height="42.2969" id="airports_data" rx="2.5" ry="2.5" style="stroke:#000000;stroke-width:0.5;" width="95" x="901" y="7"/><text fill="#000000" font-family="sans-serif" font-size="14" lengthAdjust="spacing" textLength="89" x="904" y="24.9951">airports_data</text><line style="stroke:#000000;stroke-width:0.5;" x1="902" x2="995" y1="33.2969" y2="33.2969"/><line style="stroke:#000000;stroke-width:0.5;" x1="902" x2="995" y1="41.2969" y2="41.2969"/></g><!--class seats--><g id="elem_seats"><rect codeLine="16" fill="#FFFFFF" height="42.2969" id="seats" rx="2.5" ry="2.5" style="stroke:#000000;stroke-width:0.5;" width="44" x="603" y="121"/><text fill="#000000" font-family="sans-serif" font-size="14" lengthAdjust="spacing" textLength="38" x="606" y="138.9951">seats</text><line style="stroke:#000000;stroke-width:0.5;" x1="604" x2="646" y1="147.2969" y2="147.2969"/><line style="stroke:#000000;stroke-width:0.5;" x1="604" x2="646" y1="155.2969" y2="155.2969"/></g><!--class tickets--><g id="elem_tickets"><rect codeLine="17" fill="#FFFFFF" height="42.2969" id="tickets" rx="2.5" ry="2.5" style="stroke:#000000;stroke-width:0.5;" width="52" x="599" y="198"/><text fill="#000000" font-family="sans-serif" font-size="14" lengthAdjust="spacing" textLength="46" x="602" y="215.9951">tickets</text><line style="stroke:#000000;stroke-width:0.5;" x1="600" x2="650" y1="224.2969" y2="224.2969"/><line style="stroke:#000000;stroke-width:0.5;" x1="600" x2="650" y1="232.2969" y2="232.2969"/></g><!--class bookings--><g id="elem_bookings"><rect codeLine="18" fill="#FFFFFF" height="42.2969" id="bookings" rx="2.5" ry="2.5" style="stroke:#000000;stroke-width:0.5;" width="70" x="913.5" y="198"/><text fill="#000000" font-family="sans-serif" font-size="14" lengthAdjust="spacing" textLength="64" x="916.5" y="215.9951">bookings</text><line style="stroke:#000000;stroke-width:0.5;" x1="914.5" x2="982.5" y1="224.2969" y2="224.2969"/><line style="stroke:#000000;stroke-width:0.5;" x1="914.5" x2="982.5" y1="232.2969" y2="232.2969"/></g><!--link boarding_passes to ticket_flights--><g id="link_boarding_passes_ticket_flights"><path codeLine="19" d="M139.49,143.15 C193,143.15 243.33,143.15 291.5,143.15 " fill="none" id="boarding_passes-ticket_flights" style="stroke:#000000;stroke-width:1.0;"/><line style="stroke:#000000;stroke-width:1.0;" x1="135.49" x2="135.49" y1="147.15" y2="139.15"/><line style="stroke:#000000;stroke-width:1.0;" x1="138.49" x2="138.49" y1="147.15" y2="139.15"/><line style="stroke:#000000;stroke-width:1.0;" x1="139.49" x2="131.49" y1="143.15" y2="143.15"/><line style="stroke:#000000;stroke-width:1.0;" x1="301.5" x2="309.5" y1="143.15" y2="137.15"/><line style="stroke:#000000;stroke-width:1.0;" x1="301.5" x2="309.5" y1="143.15" y2="149.15"/><line style="stroke:#000000;stroke-width:1.0;" x1="301.5" x2="309.5" y1="143.15" y2="143.15"/><ellipse cx="295.5" cy="143.15" fill="none" rx="4" ry="4" style="stroke:#000000;stroke-width:1.0;"/><text fill="#000000" font-family="sans-serif" font-size="13" lengthAdjust="spacing" textLength="117" x="162" y="139.2169">flight_id &#8594; flight_id</text></g><!--link flights to aircrafts_data--><g id="link_flights_aircrafts_data"><path codeLine="20" d="M656.336,76.1491 C666.146,79.5191 670.25,80.6 681,83.15 C756.57,101.06 828.297,110.6 881.977,116.48 " fill="none" id="flights-aircrafts_data" style="stroke:#000000;stroke-width:1.0;"/><line style="stroke:#000000;stroke-width:1.0;" x1="651.2534" x2="653.8526" y1="78.6326" y2="71.0666"/><line style="stroke:#000000;stroke-width:1.0;" x1="654.0907" x2="656.6898" y1="79.6072" y2="72.0412"/><line style="stroke:#000000;stroke-width:1.0;" x1="656.336" x2="648.77" y1="76.1491" y2="73.55"/><line style="stroke:#000000;stroke-width:1.0;" x1="891.9176" x2="900.5233" y1="117.5689" y2="112.4757"/><line style="stroke:#000000;stroke-width:1.0;" x1="891.9176" x2="899.2167" y1="117.5689" y2="124.4043"/><line style="stroke:#000000;stroke-width:1.0;" x1="891.9176" x2="899.87" y1="117.5689" y2="118.44"/><ellipse cx="885.9532" cy="116.9156" fill="none" rx="4" ry="4" style="stroke:#000000;stroke-width:1.0;"/><text fill="#000000" font-family="sans-serif" font-size="13" lengthAdjust="spacing" textLength="185" x="683" y="79.2169">aircraft_code &#8594; aircraft_code</text></g><!--link flights to airports_data--><g id="link_flights_airports_data"><path codeLine="21" d="M656.8075,61.6049 C709.1775,55.5749 812.818,43.6481 882.848,35.5881 " fill="none" id="flights-airports_data" style="stroke:#000000;stroke-width:1.0;"/><line style="stroke:#000000;stroke-width:1.0;" x1="653.2913" x2="652.3762" y1="66.0362" y2="58.0887"/><line style="stroke:#000000;stroke-width:1.0;" x1="656.2716" x2="655.3565" y1="65.693" y2="57.7455"/><line style="stroke:#000000;stroke-width:1.0;" x1="656.8075" x2="648.86" y1="61.6049" y2="62.52"/><line style="stroke:#000000;stroke-width:1.0;" x1="892.7825" x2="900.044" y1="34.4447" y2="27.5693"/><line style="stroke:#000000;stroke-width:1.0;" x1="892.7825" x2="901.416" y1="34.4447" y2="39.4907"/><line style="stroke:#000000;stroke-width:1.0;" x1="892.7825" x2="900.73" y1="34.4447" y2="33.53"/><ellipse cx="886.8218" cy="35.1307" fill="none" rx="4" ry="4" style="stroke:#000000;stroke-width:1.0;"/><text fill="#000000" font-family="sans-serif" font-size="13" lengthAdjust="spacing" textLength="187" x="682" y="33.1569">arrival_airport &#8594; airport_code</text></g><!--link seats to aircrafts_data--><g id="link_seats_aircrafts_data"><path codeLine="22" d="M655.309,145.3592 C697.899,149.6892 788.39,156.51 870,145.15 C879.7,143.8 872.4927,146.1689 882.1727,143.5989 " fill="none" id="seats-aircrafts_data" style="stroke:#000000;stroke-width:1.0;"/><line style="stroke:#000000;stroke-width:1.0;" x1="650.9249" x2="651.7341" y1="148.9341" y2="140.9751"/><line style="stroke:#000000;stroke-width:1.0;" x1="653.9095" x2="654.7187" y1="149.2375" y2="141.2785"/><line style="stroke:#000000;stroke-width:1.0;" x1="655.309" x2="647.35" y1="145.3592" y2="144.55"/><line style="stroke:#000000;stroke-width:1.0;" x1="891.8379" x2="898.0304" y1="141.0328" y2="133.1809"/><line style="stroke:#000000;stroke-width:1.0;" x1="891.8379" x2="901.1096" y1="141.0328" y2="144.7791"/><line style="stroke:#000000;stroke-width:1.0;" x1="891.8379" x2="899.57" y1="141.0328" y2="138.98"/><ellipse cx="886.0388" cy="142.5725" fill="none" rx="4" ry="4" style="stroke:#000000;stroke-width:1.0;"/><text fill="#000000" font-family="sans-serif" font-size="13" lengthAdjust="spacing" textLength="185" x="683" y="141.2169">aircraft_code &#8594; aircraft_code</text></g><!--link ticket_flights to flights--><g id="link_ticket_flights_flights"><path codeLine="23" d="M409.9691,127.6768 C467.5491,110.8568 539.7919,89.7465 583.8219,76.8865 " fill="none" id="ticket_flights-flights" style="stroke:#000000;stroke-width:1.0;"/><line style="stroke:#000000;stroke-width:1.0;" x1="407.2511" x2="405.0079" y1="132.6379" y2="124.9589"/><line style="stroke:#000000;stroke-width:1.0;" x1="410.1308" x2="407.8876" y1="131.7968" y2="124.1177"/><line style="stroke:#000000;stroke-width:1.0;" x1="409.9691" x2="402.29" y1="127.6768" y2="129.92"/><line style="stroke:#000000;stroke-width:1.0;" x1="593.4208" x2="599.4178" y1="74.0829" y2="66.0806"/><line style="stroke:#000000;stroke-width:1.0;" x1="593.4208" x2="602.7822" y1="74.0829" y2="77.5994"/><line style="stroke:#000000;stroke-width:1.0;" x1="593.4208" x2="601.1" y1="74.0829" y2="71.84"/><ellipse cx="587.6615" cy="75.765" fill="none" rx="4" ry="4" style="stroke:#000000;stroke-width:1.0;"/><text fill="#000000" font-family="sans-serif" font-size="13" lengthAdjust="spacing" textLength="117" x="442" y="78.0669">flight_id &#8594; flight_id</text></g><!--link ticket_flights to tickets--><g id="link_ticket_flights_tickets"><path codeLine="24" d="M409.9841,158.2309 C466.5241,174.3309 536.2582,194.1702 581.3482,207.0102 " fill="none" id="ticket_flights-tickets" style="stroke:#000000;stroke-width:1.0;"/><line style="stroke:#000000;stroke-width:1.0;" x1="405.0416" x2="407.2325" y1="160.9825" y2="153.2884"/><line style="stroke:#000000;stroke-width:1.0;" x1="407.9269" x2="410.1178" y1="161.8041" y2="154.11"/><line style="stroke:#000000;stroke-width:1.0;" x1="409.9841" x2="402.29" y1="158.2309" y2="156.04"/><line style="stroke:#000000;stroke-width:1.0;" x1="590.9659" x2="600.3033" y1="209.749" y2="206.1694"/><line style="stroke:#000000;stroke-width:1.0;" x1="590.9659" x2="597.0167" y1="209.749" y2="217.7106"/><line style="stroke:#000000;stroke-width:1.0;" x1="590.9659" x2="598.66" y1="209.749" y2="211.94"/><ellipse cx="585.1953" cy="208.1057" fill="none" rx="4" ry="4" style="stroke:#000000;stroke-width:1.0;"/><text fill="#000000" font-family="sans-serif" font-size="13" lengthAdjust="spacing" textLength="135" x="433" y="161.6769">ticket_no &#8594; ticket_no</text></g><!--link tickets to bookings--><g id="link_tickets_bookings"><path codeLine="25" d="M659.5,219.15 C716.9,219.15 830.31,219.15 895.21,219.15 " fill="none" id="tickets-bookings" style="stroke:#000000;stroke-width:1.0;"/><line style="stroke:#000000;stroke-width:1.0;" x1="655.5" x2="655.5" y1="223.15" y2="215.15"/><line style="stroke:#000000;stroke-width:1.0;" x1="658.5" x2="658.5" y1="223.15" y2="215.15"/><line style="stroke:#000000;stroke-width:1.0;" x1="659.5" x2="651.5" y1="219.15" y2="219.15"/><line style="stroke:#000000;stroke-width:1.0;" x1="905.21" x2="913.21" y1="219.15" y2="213.15"/><line style="stroke:#000000;stroke-width:1.0;" x1="905.21" x2="913.21" y1="219.15" y2="225.15"/><line style="stroke:#000000;stroke-width:1.0;" x1="905.21" x2="913.21" y1="219.15" y2="219.15"/><ellipse cx="899.21" cy="219.15" fill="none" rx="4" ry="4" style="stroke:#000000;stroke-width:1.0;"/><text fill="#000000" font-family="sans-serif" font-size="13" lengthAdjust="spacing" textLength="129" x="711" y="215.2169">book_ref &#8594; book_ref</text></g><!--SRC=[fP6nJiCm48PtFyMfUoLcjXO9YPc1qNBjIsBL-ABp5GGjAm_08_8anAcTagW34jlzV_pz_Y_kl4D8WemaRpsgBclhsGPKQUzZRzWyWmqc9JWgWAsn-vRf4DqT1M9uwhnWzeaTyjdRXk7Gu6sOwNLktLEKtyx7yfAD2FlTGV31KdpqxmWtAc0Z80Jisqx0UKOhdg8wjzgHOUTZg_j1OIgkUBj7qKt8J3NdoWnRicaaQMV4NCoUUEubD3BFJTFTDDHlargKWDDflQRZeWNSmkeyQk_W-_CB9hLIzKmXv-KoMHrjQNYYJC-SQmcNJSO0PlzYWYuVQaIUIyAuw3yQBDOjGN_P_ZfPVdOcou588pcfIav8VP7Cv5apDYDInUe7]--></g></svg>